<?xml version="1.0" encoding="UTF-8" standalone="no"?>
<!-- Generator: Adobe Illustrator 26.0.3, SVG Export Plug-In . SVG Version: 6.00 Build 0)  -->

<svg
   version="1.1"
   x="0px"
   y="0px"
   viewBox="0 0 1177.26 383.29"
   style="enable-background:new 0 0 1177.26 383.29;"
   xml:space="preserve"
   id="svg12"
   sodipodi:docname="Planning.nl - Logo.svg"
   inkscape:version="1.4 (e7c3feb1, 2024-10-09)"
   xmlns:inkscape="http://www.inkscape.org/namespaces/inkscape"
   xmlns:sodipodi="http://sodipodi.sourceforge.net/DTD/sodipodi-0.dtd"
   xmlns="http://www.w3.org/2000/svg"
   xmlns:svg="http://www.w3.org/2000/svg"><defs
   id="defs12" /><sodipodi:namedview
   id="namedview12"
   pagecolor="#ffffff"
   bordercolor="#000000"
   borderopacity="0.25"
   inkscape:showpageshadow="2"
   inkscape:pageopacity="0.0"
   inkscape:pagecheckerboard="0"
   inkscape:deskcolor="#d1d1d1"
   inkscape:zoom="1.2331887"
   inkscape:cx="529.1161"
   inkscape:cy="257.86808"
   inkscape:window-width="2560"
   inkscape:window-height="1027"
   inkscape:window-x="0"
   inkscape:window-y="25"
   inkscape:window-maximized="0"
   inkscape:current-layer="svg12" />
<style
   type="text/css"
   id="style1">
	.st0{fill:#F96A5B;}
	#tekst path,#tekst rect{fill:#FFFFFF;}
</style>
<g
   id="g12"
   style="enable-background:new 0 0 1177.26 383.29;display:inline"
   inkscape:label="Logo">
		<path
   class="st0"
   d="m 901.1,244.18 c 0,7.83 -6.11,13.74 -14.13,13.74 -8.21,0 -14.13,-5.92 -14.13,-14.13 0,-8.02 5.92,-13.93 14.32,-13.93 8.02,0 13.94,5.92 13.94,14.32 z"
   id="Stip2"
   style="display:inline"
   inkscape:label="Stip 2" /><path
   class="st0"
   d="m 636.54,142.05 c 0,7.45 -5.73,13.17 -13.36,13.17 -7.82,0 -13.55,-5.73 -13.55,-13.36 0,-7.83 5.73,-13.55 13.55,-13.55 7.83,-0.01 13.36,5.72 13.36,13.74 z"
   id="stip1"
   style="display:inline"
   inkscape:label="Stip 1" />
		
		<g
   id="tekst"
   style="display:inline"
   inkscape:label="Tekst">
			
			
			
			
			
			
			<path
   d="M 1025.17,255.44 V 128.11 h 24.24 v 127.33 z"
   id="L0"
   inkscape:label="L" /><path
   d="m 948.05,167.06 v 10.88 c 6.49,-10.12 12.98,-13.93 24.05,-13.93 8.4,0 16.42,3.06 21.76,8.21 5.73,5.73 7.83,12.79 7.83,27.3 v 55.93 h -24.24 v -54.79 c 0,-4.96 -0.57,-7.83 -2.1,-10.31 -2.29,-3.63 -6.87,-5.92 -11.64,-5.92 -9.35,0 -15.65,7.07 -15.65,17.37 v 53.64 h -24.24 v -88.38 z"
   id="N0"
   inkscape:label="N"
   style="enable-background:new 0 0 1177.26 383.29;display:inline" />
			
			<path
   d="m 826.09,167.06 v 10.88 c -7.64,-9.73 -16.23,-13.93 -28.63,-13.93 -26.53,0 -44.29,19.28 -44.29,47.91 0,26.91 17.56,46.58 41.8,46.58 2.42,0 4.75,-0.18 7,-0.54 V 236.9 c -13.5,-0.43 -23.03,-11.17 -23.03,-26.13 0,-14.7 9.73,-25.2 23.67,-25.2 6.11,0 12.22,2.67 16.61,6.87 4.39,4.58 6.49,11.07 6.49,20.62 0,0.03 0,0.06 0,0.09 l 0.39,30.26 v 8.97 c 0,16.61 -9.36,26.15 -25.58,26.15 -11.07,0 -19.47,-3.82 -27.3,-12.22 l -15.08,15.27 c 12.03,11.84 26.15,17.56 43.33,17.56 15.08,0 28.06,-4.77 36.65,-13.36 8.4,-8.21 11.84,-18.71 11.84,-36.84 v -81.89 h -23.87 z"
   id="G"
   inkscape:label="G" /><path
   d="m 683.5,167.06 v 10.88 c 6.49,-10.12 12.98,-13.93 24.05,-13.93 8.4,0 16.42,3.06 21.76,8.21 5.73,5.73 7.83,12.79 7.83,27.3 v 55.93 H 712.9 v -54.79 c 0,-4.96 -0.57,-7.83 -2.1,-10.31 -2.29,-3.63 -6.87,-5.92 -11.64,-5.92 -9.35,0 -15.65,7.07 -15.65,17.37 v 53.64 h -24.24 v -88.38 z"
   id="N1"
   inkscape:label="N"
   style="enable-background:new 0 0 1177.26 383.29;display:inline" /><rect
   x="610.96002"
   y="167.06"
   width="24.24"
   height="88.379997"
   id="I"
   style="enable-background:new 0 0 1177.26 383.29;display:inline"
   inkscape:label="I" /><path
   d="m 533.85,167.06 v 10.88 c 6.49,-10.12 12.98,-13.93 24.05,-13.93 8.4,0 16.42,3.06 21.76,8.21 5.73,5.73 7.83,12.79 7.83,27.3 v 55.93 h -24.24 v -54.79 c 0,-4.96 -0.57,-7.83 -2.1,-10.31 -2.29,-3.63 -6.87,-5.92 -11.64,-5.92 -9.35,0 -15.65,7.07 -15.65,17.37 v 53.64 h -24.24 v -88.38 z"
   id="N2"
   inkscape:label="N"
   style="enable-background:new 0 0 1177.26 383.29;display:inline" /><path
   d="m 432.49,167.06 v 10.88 c 6.49,-10.12 12.98,-13.93 24.05,-13.93 8.4,0 16.42,3.06 21.76,8.21 5.73,5.73 7.83,12.79 7.83,27.3 v 55.93 h -24.24 v -54.79 c 0,-4.96 -0.57,-7.83 -2.1,-10.31 -2.29,-3.63 -6.87,-5.92 -11.64,-5.92 -9.35,0 -15.65,7.07 -15.65,17.37 v 53.64 h -24.24 v -88.38 z"
   id="N4"
   inkscape:label="N"
   style="enable-background:new 0 0 1177.26 383.29;display:inline" />
			<path
   d="m 360.15,167.06 v 11.26 C 351.56,168.2 343.35,164 331.32,164 c -25.77,0 -44.48,20.42 -44.48,48.3 0,26.91 17.75,46.19 42.57,46.19 2.54,0 4.95,-0.19 7.25,-0.56 V 239 c -0.19,0 -0.38,0.02 -0.57,0.02 -13.17,0 -23.29,-11.64 -23.29,-27.11 0,-16.23 9.74,-27.49 23.48,-27.49 14.32,0 24.24,11.07 24.24,26.73 0,0.19 -0.01,0.38 -0.01,0.56 l 0.01,0.01 -0.38,28.95 v 14.77 h 24.24 v -88.38 z"
   id="A"
   style="enable-background:new 0 0 1177.26 383.29;display:inline"
   inkscape:label="A" /><path
   d="M 244.1,255.44 V 128.11 h 24.24 v 127.33 z"
   id="L1"
   inkscape:label="L"
   style="enable-background:new 0 0 1177.26 383.29;display:inline" /><path
   d="m 205.74,171.25 c -7.45,-4.96 -15.27,-7.25 -24.63,-7.25 -13.17,0 -21.76,4.2 -29.02,13.93 v -10.88 h -24.24 v 127.9 h 24.24 v -32.71 -16.35 -33.6 c 0,-16.42 9.93,-27.87 24.24,-27.87 13.74,0 23.48,11.45 23.48,27.68 0,15.44 -9.85,26.6 -23.68,26.9 v 19.2 c 1.78,0.18 3.62,0.29 5.54,0.29 26.53,0 44.1,-18.71 44.1,-46.96 0.01,-17.75 -6.67,-31.11 -20.03,-40.28 z"
   id="P"
   inkscape:label="P"
   style="enable-background:new 0 0 1177.26 383.29;display:inline" />
		</g>
	</g>

</svg>
